<svg width="193" height="155" viewBox="0 0 193 155" fill="none" xmlns="http://www.w3.org/2000/svg">
<path d="M53.2969 39.1953C54.375 38.3984 55.3359 37.4375 56.1797 36.3125C57.0703 35.1875 57.8203 33.9688 58.4297 32.6562C59.0391 31.3437 59.5078 29.9609 59.8359 28.5078C60.1641 27.0547 60.3281 25.5781 60.3281 24.0781C60.3281 21.8281 59.9297 19.6016 59.1328 17.3984C58.3828 15.1484 57.1406 13.1328 55.4062 11.3516C53.7188 9.52344 51.5156 8.04688 48.7969 6.92188C46.0781 5.79688 42.7734 5.23438 38.8828 5.23438C34.5703 5.23438 30.4922 5.9375 26.6484 7.34375C22.8047 8.75 19.4297 10.6484 16.5234 13.0391C13.6641 15.4297 11.3906 18.1953 9.70312 21.3359C8.01562 24.4766 7.17188 27.7578 7.17188 31.1797C7.17188 34.7891 8.01562 38 9.70312 40.8125C11.4375 43.5781 13.6875 46.1094 16.4531 48.4062C19.2656 50.6562 22.4531 52.7422 26.0156 54.6641C29.5781 56.5859 33.2109 58.4844 36.9141 60.3594C40.6172 62.2344 44.25 64.2031 47.8125 66.2656C51.375 68.2812 54.5391 70.5547 57.3047 73.0859C60.1172 75.6172 62.3672 78.4531 64.0547 81.5938C65.7891 84.7344 66.6562 88.3672 66.6562 92.4922C66.6562 96.4297 65.7188 100.203 63.8438 103.812C61.9688 107.422 59.3906 110.633 56.1094 113.445C52.8281 116.211 48.9609 118.414 44.5078 120.055C40.1016 121.742 35.3438 122.586 30.2344 122.586C24.5156 122.586 19.7812 121.953 16.0312 120.688C12.3281 119.469 9.375 117.922 7.17188 116.047C5.01562 114.172 3.51562 112.156 2.67188 110C1.82812 107.797 1.40625 105.758 1.40625 103.883C1.40625 101.586 1.75781 99.5234 2.46094 97.6953C3.21094 95.8203 4.19531 94.1562 5.41406 92.7031C6.63281 91.2031 7.99219 89.9141 9.49219 88.8359C11.0391 87.7109 12.6094 86.7734 14.2031 86.0234C15.8438 85.2266 17.4141 84.5938 18.9141 84.125C20.4609 83.6094 21.8438 83.2344 23.0625 83L23.7656 86.5859C23.2031 86.7734 22.1719 87.2422 20.6719 87.9922C19.2188 88.6953 17.6953 89.75 16.1016 91.1562C14.5078 92.5156 13.1016 94.2266 11.8828 96.2891C10.6641 98.3516 10.0547 100.789 10.0547 103.602C10.0547 105.523 10.4531 107.398 11.25 109.227C12.0938 111.055 13.3359 112.695 14.9766 114.148C16.6172 115.602 18.6328 116.773 21.0234 117.664C23.4141 118.555 26.2031 119 29.3906 119C33.2344 119 36.5859 118.648 39.4453 117.945C42.3516 117.195 44.8359 116.234 46.8984 115.062C49.0078 113.891 50.7188 112.555 52.0312 111.055C53.3906 109.508 54.4453 107.914 55.1953 106.273C55.9922 104.633 56.5312 103.016 56.8125 101.422C57.1406 99.7812 57.3047 98.3047 57.3047 96.9922C57.3047 93.4297 56.4844 90.3125 54.8438 87.6406C53.2031 84.9219 51.0234 82.5078 48.3047 80.3984C45.6328 78.2422 42.5859 76.2969 39.1641 74.5625C35.7422 72.7812 32.2266 71.0234 28.6172 69.2891C25.0547 67.5547 21.5625 65.75 18.1406 63.875C14.7188 62 11.6484 59.8672 8.92969 57.4766C6.25781 55.0859 4.10156 52.3672 2.46094 49.3203C0.820312 46.2266 0 42.6172 0 38.4922C0 32.9609 1.14844 27.8984 3.44531 23.3047C5.74219 18.6641 8.83594 14.7031 12.7266 11.4219C16.6172 8.09375 21.1172 5.51562 26.2266 3.6875C31.3828 1.85938 36.7969 0.945312 42.4688 0.945312C47.2969 0.945312 51.4219 1.50781 54.8438 2.63281C58.2656 3.75781 61.0547 5.23438 63.2109 7.0625C65.4141 8.89062 67.0078 10.9766 67.9922 13.3203C69.0234 15.6641 69.5391 18.0547 69.5391 20.4922C69.5391 23.3984 69.0234 26.0469 67.9922 28.4375C67.0078 30.8281 65.7891 32.9609 64.3359 34.8359C62.9297 36.6641 61.4062 38.2109 59.7656 39.4766C58.125 40.6953 56.6719 41.5625 55.4062 42.0781L53.2969 39.1953ZM136.547 89.4688L135.844 90.9453C133.875 94.8828 132 98.5625 130.219 101.984C128.438 105.406 126.656 108.383 124.875 110.914C123.094 113.445 121.266 115.438 119.391 116.891C117.562 118.297 115.594 119 113.484 119C111.375 119 109.312 118.438 107.297 117.312C105.281 116.188 103.266 114.617 101.25 112.602C99.2812 110.586 97.2891 108.242 95.2734 105.57C93.3047 102.852 91.2656 99.8984 89.1562 96.7109L86.6953 97.1328C86.6016 101.258 86.4609 104.984 86.2734 108.312C86.0859 111.594 85.8516 114.289 85.5703 116.398C85.4297 117.336 85.0312 118.016 84.375 118.438C83.7656 118.812 82.9219 119 81.8438 119C80.5781 119 79.5234 118.836 78.6797 118.508C77.8359 118.18 77.1797 117.781 76.7109 117.312C76.1953 116.797 75.8438 116.258 75.6562 115.695C75.4219 115.086 75.3047 114.5 75.3047 113.938C75.3047 110.938 75.7969 107.211 76.7812 102.758V66.4062C76.7812 57.4062 77.25 49.625 78.1875 43.0625C79.125 36.4531 80.3906 30.9922 81.9844 26.6797C83.5781 22.3203 85.4297 19.1094 87.5391 17.0469C89.6953 14.9375 91.9688 13.8828 94.3594 13.8828C96.9375 13.8828 98.7656 14.7266 99.8438 16.4141C100.969 18.0547 101.531 20.3281 101.531 23.2344C101.531 25.7656 101.156 29.0234 100.406 33.0078C99.6562 36.9453 98.6016 41.2812 97.2422 46.0156C95.9297 50.75 94.3828 55.6953 92.6016 60.8516C90.8203 65.9609 88.8984 70.9531 86.8359 75.8281V77.375C88.1484 75.2656 89.6719 73.25 91.4062 71.3281C93.1875 69.4062 95.0859 67.7188 97.1016 66.2656C99.1172 64.7656 101.18 63.5938 103.289 62.75C105.445 61.8594 107.555 61.4141 109.617 61.4141C111.445 61.4141 113.109 61.6719 114.609 62.1875C116.156 62.7031 117.492 63.4531 118.617 64.4375C119.742 65.4219 120.609 66.6641 121.219 68.1641C121.828 69.6172 122.133 71.3047 122.133 73.2266C122.133 75.1953 121.688 77.1641 120.797 79.1328C119.953 81.1016 118.594 83 116.719 84.8281C114.891 86.6562 112.523 88.3906 109.617 90.0312C106.711 91.625 103.195 93.0312 99.0703 94.25C99.3516 94.6719 99.8203 95.375 100.477 96.3594C101.133 97.3438 101.906 98.4688 102.797 99.7344C103.734 100.953 104.742 102.242 105.82 103.602C106.898 104.914 108 106.133 109.125 107.258C110.297 108.336 111.445 109.25 112.57 110C113.695 110.703 114.727 111.055 115.664 111.055C116.93 111.055 118.219 110.539 119.531 109.508C120.844 108.43 122.203 106.93 123.609 105.008C125.062 103.039 126.562 100.695 128.109 97.9766C129.656 95.2109 131.273 92.1406 132.961 88.7656L133.664 87.2891L136.547 89.4688ZM86.8359 83.4219C86.8359 84.5 86.8125 85.4609 86.7656 86.3047C86.7656 87.1016 86.7656 87.8984 86.7656 88.6953C86.7656 89.4453 86.7422 90.2188 86.6953 91.0156C86.6953 91.8125 86.6953 92.7031 86.6953 93.6875C91.4766 92.9844 95.5078 92.0469 98.7891 90.875C102.117 89.7031 104.812 88.3438 106.875 86.7969C108.938 85.25 110.438 83.5625 111.375 81.7344C112.312 79.8594 112.781 77.8906 112.781 75.8281C112.781 74.75 112.594 73.7188 112.219 72.7344C111.891 71.7031 111.398 70.8125 110.742 70.0625C110.086 69.2656 109.266 68.6328 108.281 68.1641C107.344 67.6953 106.289 67.4609 105.117 67.4609C103.477 67.4609 101.812 67.9062 100.125 68.7969C98.4844 69.6406 96.8438 70.7891 95.2031 72.2422C93.6094 73.6953 92.0859 75.4062 90.6328 77.375C89.2266 79.2969 87.9609 81.3125 86.8359 83.4219ZM93.0234 17.4688C92.0391 17.4688 91.1719 18.4297 90.4219 20.3516C89.7188 22.2734 89.1094 25.2734 88.5938 29.3516C88.0781 33.3828 87.6562 38.5391 87.3281 44.8203C87 51.0547 86.7422 58.5078 86.5547 67.1797C88.5234 61.9766 90.1172 57.1016 91.3359 52.5547C92.5547 47.9609 93.4922 43.8359 94.1484 40.1797C94.8516 36.4766 95.3203 33.2656 95.5547 30.5469C95.7891 27.7813 95.9062 25.5781 95.9062 23.9375C95.9062 21.4531 95.6719 19.7656 95.2031 18.875C94.7812 17.9375 94.0547 17.4688 93.0234 17.4688ZM138.164 63.3828C138.352 62.9141 138.797 62.5391 139.5 62.2578C140.203 61.9766 140.953 61.7891 141.75 61.6953C142.547 61.5547 143.297 61.4844 144 61.4844C144.703 61.4375 145.172 61.4141 145.406 61.4141C146.109 61.4141 146.555 61.6016 146.742 61.9766C146.977 62.3047 147.094 62.8438 147.094 63.5938C147.094 63.9688 146.977 64.8125 146.742 66.125C146.508 67.3906 146.203 68.9844 145.828 70.9062C145.5 72.8281 145.125 75.0078 144.703 77.4453C144.328 79.8828 143.953 82.3906 143.578 84.9688C143.25 87.5469 142.969 90.1719 142.734 92.8438C142.5 95.4688 142.383 97.9531 142.383 100.297C142.383 104.375 143.062 107.445 144.422 109.508C145.781 111.523 147.352 112.531 149.133 112.531C152.227 112.531 154.969 110.258 157.359 105.711C159.75 101.164 162.234 94.5078 164.812 85.7422V65.2812C164.812 64.4844 165.164 63.8516 165.867 63.3828C166.617 62.8672 167.461 62.4688 168.398 62.1875C169.336 61.9062 170.25 61.7188 171.141 61.625C172.031 61.4844 172.664 61.4141 173.039 61.4141C174.492 61.4141 175.219 62.1406 175.219 63.5938C175.219 64.1094 175.172 64.9766 175.078 66.1953C175.031 67.3672 174.961 68.7734 174.867 70.4141C174.773 72.0078 174.68 73.7891 174.586 75.7578C174.539 77.6797 174.516 79.625 174.516 81.5938V110.211C175.359 109.133 176.414 107.703 177.68 105.922C178.992 104.141 180.328 102.242 181.688 100.227C183.094 98.2109 184.43 96.1953 185.695 94.1797C187.008 92.1641 188.062 90.3594 188.859 88.7656L189.633 87.2891L192.516 89.4688L191.742 90.9453C190.758 92.9141 189.586 94.9531 188.227 97.0625C186.867 99.1719 185.414 101.305 183.867 103.461C182.367 105.57 180.797 107.68 179.156 109.789C177.562 111.852 176.016 113.82 174.516 115.695V131.234C174.516 135.547 174.117 139.203 173.32 142.203C172.57 145.25 171.516 147.711 170.156 149.586C168.797 151.508 167.203 152.891 165.375 153.734C163.547 154.578 161.555 155 159.398 155C158.039 155 156.773 154.789 155.602 154.367C154.477 153.945 153.492 153.312 152.648 152.469C151.805 151.672 151.148 150.688 150.68 149.516C150.211 148.391 149.977 147.102 149.977 145.648C149.977 143.539 150.352 141.43 151.102 139.32C151.898 137.211 152.977 135.031 154.336 132.781C155.742 130.531 157.359 128.211 159.188 125.82C161.016 123.477 162.984 121.016 165.094 118.438V97.1328C163.922 100.32 162.656 103.273 161.297 105.992C159.938 108.664 158.461 110.961 156.867 112.883C155.273 114.805 153.562 116.305 151.734 117.383C149.906 118.461 147.938 119 145.828 119C144.328 119 142.781 118.766 141.188 118.297C139.641 117.781 138.188 116.867 136.828 115.555C135.516 114.242 134.438 112.484 133.594 110.281C132.75 108.031 132.328 105.172 132.328 101.703C132.328 97.7656 132.562 93.7578 133.031 89.6797C133.5 85.6016 134.039 81.8047 134.648 78.2891C135.305 74.7734 135.961 71.7031 136.617 69.0781C137.273 66.4062 137.789 64.5078 138.164 63.3828ZM158.625 150.711C159.375 150.711 160.125 150.547 160.875 150.219C161.672 149.938 162.375 149.258 162.984 148.18C163.594 147.102 164.086 145.508 164.461 143.398C164.883 141.289 165.094 138.43 165.094 134.82V124.203C163.5 126.172 162.023 128.07 160.664 129.898C159.352 131.773 158.203 133.578 157.219 135.312C156.234 137.094 155.461 138.805 154.898 140.445C154.336 142.086 154.055 143.68 154.055 145.227C154.055 146.68 154.453 147.945 155.25 149.023C156.047 150.148 157.172 150.711 158.625 150.711Z" fill="url(#paint0_linear)" style="mix-blend-mode:darken"/>
<defs>
<linearGradient id="paint0_linear" x1="16" y1="119" x2="190" y2="100.5" gradientUnits="userSpaceOnUse">
<stop stop-color="#064053"/>
<stop offset="1" stop-color="#0988B0" stop-opacity="0.74"/>
</linearGradient>
</defs>
</svg>
